<?xml version="1.0" encoding="utf-8"?>
<!-- Generator: Adobe Illustrator 24.2.1, SVG Export Plug-In . SVG Version: 6.00 Build 0)  -->
<svg version="1.1" id="圖層_1" xmlns="http://www.w3.org/2000/svg" xmlns:xlink="http://www.w3.org/1999/xlink" x="0px" y="0px"
	 viewBox="0 0 37.1 36.8" style="enable-background:new 0 0 37.1 36.8;" xml:space="preserve">
<style type="text/css">
	.st0{fill:#FF0000;}
	.st1{fill:#FFFFFF;}
</style>
<g>
	<g>
		<g>
			<g>
				<circle class="st0" cx="18.6" cy="18.4" r="18"/>
			</g>
		</g>
	</g>
	<path class="st1" d="M13.6,23.4h-1v-4.2H7.8v4.2h-1v-9.1h1v4h4.8v-4h1V23.4z M15.4,19c0-1.5,0.4-2.6,1.2-3.5
		c0.8-0.9,1.9-1.3,3.2-1.3c1.3,0,2.3,0.4,3,1.3c0.8,0.9,1.1,1.9,1.1,3.3s-0.4,2.6-1.2,3.5s-1.8,1.3-3.2,1.3c-1.3,0-2.3-0.4-3.1-1.3
		C15.7,21.4,15.4,20.3,15.4,19z M16.4,18.9c0,1.1,0.3,2,0.9,2.7s1.4,1.1,2.3,1.1c1,0,1.8-0.3,2.4-1s0.9-1.6,0.9-2.7
		c0-1.2-0.3-2.1-0.8-2.8c-0.6-0.7-1.3-1-2.4-1c-1,0-1.8,0.4-2.4,1.1C16.7,16.9,16.4,17.8,16.4,18.9z M31,15.2h-2.6v8.2h-1v-8.2h-2.6
		v-0.9H31C31,14.3,31,15.2,31,15.2z"/>
</g>
</svg>
