<svg width="21" height="20" viewBox="0 0 21 20" fill="none" xmlns="http://www.w3.org/2000/svg">
<path d="M10.7618 0C10.9206 0 11.0718 0 11.2306 0C11.8128 0.0982987 12.259 0.423441 12.6824 0.816635C13.1966 1.29301 13.7259 1.75425 14.2552 2.2155C14.3308 2.28355 14.4442 2.32892 14.5501 2.32892C15.3213 2.33648 16.1002 2.32892 16.8714 2.33648C17.0151 2.33648 17.1588 2.34405 17.2949 2.37429C17.9452 2.53308 18.3232 3.0397 18.3232 3.75803C18.3308 4.3932 18.3308 5.02079 18.3232 5.65596C18.3232 5.79206 18.361 5.8828 18.4593 5.97354C19.1021 6.53308 19.7297 7.10775 20.3724 7.6673C20.7807 8.02269 20.9849 8.47637 20.9849 9.00567C20.9849 12.0983 20.9924 15.1909 20.9773 18.2836C20.9773 18.5406 20.9168 18.8204 20.8034 19.0548C20.4858 19.7202 19.9187 20 19.1852 20C14.482 20 9.78637 20 5.08315 20C4.29677 20 3.51038 20 2.71643 20C2.13419 20 1.63514 19.7883 1.31 19.2968C1.15877 19.0624 1.08316 18.775 0.977295 18.518C0.977295 15.2514 0.977295 11.9849 0.977295 8.71078C1.09072 8.15123 1.45367 7.7656 1.86954 7.41021C2.41397 6.94896 2.93571 6.45747 3.48013 5.98866C3.60111 5.8828 3.64648 5.77694 3.63892 5.61815C3.63136 5.00567 3.63136 4.3932 3.63892 3.78072C3.63892 2.88091 4.19091 2.32892 5.08315 2.32892C5.85442 2.32892 6.63325 2.33648 7.40452 2.32136C7.51794 2.32136 7.64648 2.26843 7.72966 2.19282C8.2514 1.73913 8.77314 1.28544 9.27219 0.816635C9.72588 0.431002 10.172 0.0982987 10.7618 0ZM12.7731 12.9225C12.8034 12.9074 12.8336 12.8998 12.8488 12.8847C14.414 11.8941 15.9792 10.896 17.5444 9.91304C17.6427 9.85255 17.6578 9.77694 17.6578 9.67108C17.6578 7.7051 17.6578 5.73913 17.6578 3.77316C17.6578 3.25898 17.4007 3.00945 16.8866 3.00945C12.9546 3.00945 9.02266 3.00945 5.09072 3.00945C4.57654 3.00945 4.31945 3.26654 4.31945 3.77316C4.31945 5.7845 4.31945 7.79584 4.32701 9.80718C4.32701 9.8828 4.37994 9.99622 4.44799 10.0416C5.81661 10.9792 7.1928 11.9093 8.56142 12.8469C8.65215 12.9074 8.71264 12.9074 8.79582 12.8318C9.04535 12.6125 9.29488 12.3932 9.55196 12.1815C10.2552 11.5917 11.0794 11.5841 11.7977 12.1512C12.1304 12.4083 12.4556 12.6654 12.7731 12.9225ZM2.35348 19.2363C2.35348 19.259 2.36104 19.2741 2.36104 19.2968C2.5047 19.3119 2.65593 19.3346 2.7996 19.3346C4.36482 19.3346 5.92247 19.3346 7.48769 19.3346C11.3894 19.3346 15.2835 19.3346 19.1852 19.3346C19.3289 19.3346 19.465 19.3119 19.654 19.2968C19.5709 19.2212 19.5331 19.1834 19.4877 19.1531C16.8034 17.0057 14.1191 14.8582 11.4348 12.7183C10.8903 12.2798 10.4442 12.2949 9.91491 12.7486C7.93382 14.4499 5.95272 16.1437 3.97162 17.845C3.43476 18.2987 2.89034 18.7675 2.35348 19.2363ZM13.3327 13.3686C15.6238 15.1985 17.8922 17.0208 20.2211 18.8809C20.2665 18.6238 20.327 18.4197 20.327 18.2231C20.3346 15.1909 20.3346 12.1588 20.3346 9.12665C20.3346 9.08129 20.327 9.02836 20.327 8.95274C17.983 10.4272 15.6616 11.8941 13.3327 13.3686ZM8.16822 13.3686C5.99053 11.8941 3.84308 10.4348 1.67295 8.96786C1.66539 9.02836 1.66539 9.05104 1.66539 9.08129C1.66539 12.1437 1.66539 15.2136 1.67295 18.276C1.67295 18.4499 1.73344 18.6238 1.77881 18.8507C3.92625 16.9981 6.0359 15.1909 8.16822 13.3686ZM13.31 2.32136C13.3176 2.30624 13.3327 2.29112 13.3402 2.28355C12.7883 1.80718 12.259 1.30813 11.6843 0.869565C11.223 0.521739 10.5803 0.604915 10.1191 1.00567C9.65026 1.40643 9.19658 1.82231 8.73533 2.23819C8.71264 2.26087 8.69752 2.28355 8.65971 2.32892C10.2249 2.32136 11.7675 2.32136 13.31 2.32136ZM3.64648 9.49716C3.64648 8.57467 3.64648 7.67486 3.64648 6.75236C3.05669 7.28166 2.48202 7.78828 1.89979 8.31002C2.49714 8.71834 3.05669 9.09641 3.64648 9.49716ZM20.0926 8.2949C19.5028 7.77316 18.9357 7.26654 18.3459 6.7448C18.3459 7.64461 18.3459 8.50662 18.3459 9.39887C18.9357 9.03592 19.4953 8.67297 20.0926 8.2949Z" fill="white"/>
</svg>
