<?xml version="1.0" encoding="utf-8"?>
<!-- Generator: Adobe Illustrator 24.2.1, SVG Export Plug-In . SVG Version: 6.00 Build 0)  -->
<svg version="1.1" id="圖層_1" xmlns="http://www.w3.org/2000/svg" xmlns:xlink="http://www.w3.org/1999/xlink" x="0px" y="0px"
	 viewBox="0 0 155.9 155.9" style="enable-background:new 0 0 155.9 155.9;" xml:space="preserve">
<style type="text/css">
	.st0{fill:#FFFFFF;}
</style>
<path class="st0" d="M15.5,79.6c6.6,0,13.3,0,20,0c0-1.3,0-2.5,0-3.9c-2.6,0-5.2,0-7.8,0c0-1.4,0-2.7,0-4c2.6,0,5.2,0,7.8,0
	c0-2.7,0-5.3,0-8c-2.6,0-5.2,0-7.8,0c0-1.4,0-2.6,0-3.9c2.6,0,5.2,0,7.8,0c0-2.7,0-5.3,0-8.1c-2.6,0-5.2,0-7.8,0c0-1.4,0-2.7,0-4
	c2.6,0,5.2,0,7.9,0c0-2.7,0-5.3,0-8c-2.7,0-5.2,0-7.9,0c0-1.3,0-2.6,0-4c2.3,0,4.5-0.1,6.7,0c1,0,1.3-0.3,1.3-1.3
	c-0.1-2.2,0-4.4,0-6.8c-2.7,0-5.3,0-8,0c0-1.4,0-2.6,0-4c2.6,0,5.2,0,7.9,0c0-2.7,0-5.3,0-8c1.4,0,2.6,0,3.9,0c0,19.5,0,39.1,0,58.6
	c0.1,0,0.2,0.1,0.3,0.1c0.2-0.3,0.5-0.7,0.7-1c3.8-6.2,7.6-12.4,11.4-18.6c0.5-0.8,0.9-1,1.8-1c10.6,0,21.2,0,31.8,0.1
	c1,0,1.7-0.3,2.4-1c7.4-7.4,14.8-14.8,22.2-22.2c0.7-0.7,1.3-0.9,2.2-0.9c3.1,0.1,6.3,0,9.6,0c0,16.7,0,33.4,0,50.1
	c6.1,0,12,0,18.1,0c0,20.2,0,40.2,0,60.3c-41.5,0-83,0-124.5,0C15.5,119.8,15.5,99.7,15.5,79.6z M101.9,83.8
	c10.1,14.2,6.3,31.4-4.4,40.6c-10.9,9.5-26.8,10-38.1,1.3c-5.7-4.4-9.5-10.1-11.1-17.2c-2-9-0.2-17.2,5.2-24.7c-11.4,0-22.7,0-34,0
	c0,17.4,0,34.7,0,52c38.8,0,77.5,0,116.3,0c0-17.4,0-34.7,0-52C124.5,83.8,113.3,83.8,101.9,83.8z M77.7,127.8
	c14.4,0,26.1-11.6,26.1-26c0.1-14.4-11.6-26.2-26.1-26.2c-14.4,0-26.1,11.6-26.1,26C51.6,116.1,63.2,127.8,77.7,127.8z M114,33.5
	c0,15.4,0,30.7,0,46c1.3,0,2.5,0,3.8,0c0-15.4,0-30.7,0-46C116.4,33.5,115.2,33.5,114,33.5z M109.8,36.3c-1.2,1.3-2.2,2.2-3.1,3.3
	c-0.4,0.5-0.8,1.2-0.8,1.9c-0.1,12.3,0,24.6,0,36.9c0,0.4,0.1,0.8,0.1,1.2c1.3,0,2.6,0,3.8,0C109.8,65.2,109.8,50.9,109.8,36.3z
	 M101.7,44.7c-0.1-0.1-0.2-0.1-0.3-0.2c-1,1-1.9,2-2.8,2.9c-0.7,0.6-0.9,1.2-0.9,2.1c0,9.5,0,19,0,28.5c0,0.3-0.1,0.6,0,0.8
	c0.1,0.3,0.4,0.6,0.7,0.6c1.1,0.1,2.1,0,3.2,0C101.7,67.9,101.7,56.3,101.7,44.7z M61.7,57.5c-1,0-1.9,0.1-2.7,0
	c-1.1-0.1-1.4,0.3-1.4,1.3c0.1,6.3,0,12.7,0,19c0,0.4,0,0.8,0,1.3c1.4-1,2.5-1.8,3.6-2.7c0.3-0.2,0.4-0.7,0.4-1c0.1-1.9,0-3.7,0-5.6
	C61.7,65.9,61.7,61.8,61.7,57.5z M93.7,52.7c-0.1-0.1-0.2-0.2-0.3-0.2c-1.1,1.2-2.3,2.4-3.4,3.6c-0.2,0.2-0.3,0.6-0.3,0.9
	c0,5.5,0,10.9,0,16.4c0,0.3,0.2,0.8,0.4,0.9c1.1,0.7,2.3,1.2,3.6,1.9C93.7,68.3,93.7,60.5,93.7,52.7z M53.6,59.9
	c-0.1,0-0.2-0.1-0.2-0.1c-1.1,1.8-2.2,3.5-3.3,5.3c-0.3,0.5-0.5,1.2-0.5,1.8c-0.1,3.8,0,7.6,0,11.4c0,0.4,0,0.8,0,1.2
	c1.4,0,2.7,0,4,0C53.6,72.9,53.6,66.4,53.6,59.9z M65.7,74c1.4-0.5,2.7-0.9,3.9-1.3c0-5.1,0-10.1,0-15.1c-1.3,0-2.6,0-3.9,0
	C65.7,63.1,65.7,68.5,65.7,74z M73.8,57.6c0,4.8,0,9.5,0,14.3c1.4-0.1,2.6-0.2,3.9-0.3c0-4.7,0-9.3,0-13.9
	C76.3,57.6,75.1,57.6,73.8,57.6z M85.6,72.6c0-5,0-10,0-15c-1.3,0-2.6,0-3.9,0c0,4.6,0,9.2,0,13.8c0,0.2,0.3,0.6,0.6,0.6
	C83.4,72.3,84.5,72.4,85.6,72.6z M45.5,79.6c0-2.3,0-4.5,0-7c-1.5,2.5-2.9,4.7-4.3,7C42.7,79.6,44.1,79.6,45.5,79.6z"/>
<path class="st0" d="M43.7,45.5c0.6,0,1.1,0,1.6,0c12.2,0,24.4,0,36.6,0c0.6,0,1.4-0.3,1.8-0.7c8.2-8.1,16.3-16.3,24.5-24.5
	c0.2-0.2,0.4-0.4,0.8-0.8c-1.1-0.1-2-0.1-2.9-0.2c0-1.3,0-2.6,0-3.9c3.3,0,6.5,0,9.9,0c0,3.3,0,6.6,0,9.9c-1.3,0-2.5,0-3.9,0
	c0-0.9,0-1.8,0-3c-0.6,0.5-0.9,0.8-1.2,1.1c-8.4,8.4-16.8,16.8-25.2,25.2c-0.7,0.7-1.3,1-2.2,1c-12.8,0-25.5,0-38.3,0
	c-0.4,0-0.9,0-1.4,0C43.7,48.1,43.7,46.9,43.7,45.5z"/>
<path class="st0" d="M33.4,91.7c-2,0-3.9,0-5.9,0c0,2,0,3.9,0,5.9c-1.4,0-2.6,0-3.9,0c0-3.3,0-6.6,0-9.9c3.3,0,6.5,0,9.9,0
	C33.4,89,33.4,90.3,33.4,91.7z"/>
<path class="st0" d="M122,87.7c3.3,0,6.6,0,9.9,0c0,3.3,0,6.6,0,9.9c-1.3,0-2.5,0-3.9,0c0-1.9,0-3.8,0-5.9c-2.1,0-4,0-6,0
	C122,90.3,122,89.1,122,87.7z"/>
<path class="st0" d="M27.5,127.8c2.1,0,4,0,5.9,0c0,1.4,0,2.6,0,4c-3.3,0-6.5,0-9.9,0c0-3.3,0-6.5,0-9.9c1.3,0,2.5,0,3.9,0
	C27.5,123.8,27.5,125.7,27.5,127.8z"/>
<path class="st0" d="M131.9,131.8c-3.3,0-6.5,0-9.9,0c0-1.3,0-2.6,0-3.9c1.9,0,3.8,0,5.8,0c0-2,0-3.9,0-5.9c1.4,0,2.7,0,4,0
	C131.9,125.2,131.9,128.4,131.9,131.8z"/>
<path class="st0" d="M27.4,111.7c-1.4,0-2.6,0-3.9,0c0-1.3,0-2.5,0-3.8c1.3,0,2.5,0,3.9,0C27.4,109.1,27.4,110.3,27.4,111.7z"/>
<path class="st0" d="M31.6,107.8c1.3,0,2.6,0,3.9,0c0,1.3,0,2.5,0,3.8c-1.3,0-2.5,0-3.9,0C31.6,110.4,31.6,109.2,31.6,107.8z"/>
<path class="st0" d="M39.6,107.8c1.3,0,2.6,0,3.9,0c0,1.3,0,2.5,0,3.8c-1.3,0-2.5,0-3.9,0C39.6,110.4,39.6,109.1,39.6,107.8z"/>
<path class="st0" d="M115.8,111.7c-1.3,0-2.6,0-3.9,0c0-1.3,0-2.5,0-3.8c1.3,0,2.6,0,3.9,0C115.8,109.1,115.8,110.3,115.8,111.7z"/>
<path class="st0" d="M123.8,107.8c0,1.3,0,2.6,0,3.9c-1.3,0-2.5,0-3.9,0c0-1.3,0-2.6,0-3.9C121.3,107.8,122.5,107.8,123.8,107.8z"/>
<path class="st0" d="M128,107.8c1.4,0,2.6,0,3.9,0c0,1.3,0,2.5,0,3.8c-1.3,0-2.5,0-3.9,0C128,110.4,128,109.1,128,107.8z"/>
<path class="st0" d="M77.6,123.8c-12.1,0-22.1-10.1-22-22.2c0.1-12.1,10-22,22.1-22c12.2,0,22.1,10,22.1,22.2
	C99.8,114,89.8,123.9,77.6,123.8z M77.6,119.8c10,0,18-7.9,18.1-17.9c0.1-10-7.9-18.2-17.9-18.2c-10-0.1-18.1,7.9-18.2,18
	C59.6,111.7,67.6,119.7,77.6,119.8z"/>
<path class="st0" d="M79.6,113.7c-1.3,0-2.5,0-3.9,0c0.6-1.9-0.6-2.6-1.9-3.5c-1.4-1-2-2.6-2.1-4.5c1.2,0,2.3,0,3.5,0
	c0.2,0,0.5,0.3,0.6,0.5c0.5,1.1,1.2,1.6,2.4,1.4c1-0.3,1.6-1,1.5-2.1s-0.8-1.7-2.1-1.9c-3.2-0.4-5.2-2.1-5.7-4.9
	c-0.5-2.4,0.5-4.9,2.7-6.1c1-0.6,1.4-1.2,1.2-2.3c0-0.2,0-0.4,0.1-0.7c1.3,0,2.5,0,3.7,0c0.1,0.1,0.2,0.2,0.1,0.2
	c-0.2,1.4,0.3,2.2,1.6,3c1.7,1,2.4,2.7,2.5,4.7c-1.4,0-2.6,0-3.9,0c-0.1-0.3-0.2-0.5-0.3-0.8c-0.5-0.9-1.2-1.3-2.2-1.1
	c-1,0.2-1.5,0.9-1.6,1.9c0,1.1,0.6,1.7,1.6,2c0.3,0.1,0.6,0.1,0.9,0.1c2.5,0.2,4.7,2,5.3,4.5c0.7,2.5-0.3,5.2-2.6,6.5
	c-1.1,0.6-1.4,1.3-1.3,2.4C79.7,113.3,79.6,113.5,79.6,113.7z"/>
</svg>
