<?xml version="1.0" encoding="utf-8"?>
<!-- Generator: Adobe Illustrator 24.2.1, SVG Export Plug-In . SVG Version: 6.00 Build 0)  -->
<svg version="1.1" id="圖層_1" xmlns="http://www.w3.org/2000/svg" xmlns:xlink="http://www.w3.org/1999/xlink" x="0px" y="0px"
	 viewBox="0 0 155.9 155.9" style="enable-background:new 0 0 155.9 155.9;" xml:space="preserve">
<style type="text/css">
	.st0{fill:#FFFFFF;}
</style>
<path class="st0" d="M4,117c0.9-2.1,2.8-2.2,4.9-2.1c0-0.6,0.1-1.1,0.1-1.6c0-3.4,0-6.8,0-10.3c0-1.8,0.8-3,2.2-3.4
	c1.9-0.5,3.6,0.8,3.6,3c0.1,3.5,0,6.9,0,10.4c0,0.5,0,1,0,1.7c35.7,0,71.3,0,107.1,0c0-13.4,0-26.8,0-40.4c-1,0-2,0-3.2,0
	c0,0.6,0,1.1,0,1.7c0,10.2,0,20.4,0,30.6c0,3.4-0.8,4.2-4.2,4.2c-30.7,0-61.4,0-92.2,0c-3.2,0-4.1-0.9-4.1-4.1c0-18.6,0-37.2,0-55.8
	c0-3.2,0.9-4,4-4c16.9,0,33.7,0,50.6,0c0.6,0,1.1,0,1.8,0c0-1.4,0-2.6,0-3.9c-19.9,0-39.7,0-59.8,0c0,0.6,0,1.1,0,1.7
	c0,11.3,0,22.5,0,33.8c0,0.6,0,1.3-0.1,1.9c-0.3,1.3-1.2,2.1-2.5,2.2c-1.3,0.1-2.5-0.6-2.9-1.9C9,80,8.9,79.3,8.9,78.5
	c0-12.4,0-24.8,0-37.3c0-3.2,0.9-4.1,4.1-4.1c19.9,0,39.8,0,59.7,0c0.6,0,1.1,0,1.9,0c0-2.7,0-5.3,0-7.9c0-0.8,0-1.5,0.1-2.3
	c0.2-1.4,1.1-2.2,2.5-2.5c0.5-0.1,1-0.1,1.6-0.1c23,0,46,0,68.9,0c3.4,0,4.3,0.9,4.3,4.3c0,13.8,0,27.7,0,41.5c0,3.2-0.9,4.1-4,4.1
	c-6.2,0-12.3,0-18.5,0c-0.5,0-1,0-1.6,0c0,13.6,0,27,0,40.5c0.7,0,1.3,0.1,2,0.1c1.2,0.1,2.1,0.6,2.6,1.7c0.5,1.1,0.3,2.1-0.5,3
	c-3.4,3.4-6.8,6.8-10.3,10.1c-0.6,0.6-1.9,0.8-2.8,0.8c-6.7,0.1-13.5,0-20.2,0c-26.7,0-53.5,0-80.2,0c-1.9,0-3.3-0.5-4.6-1.9
	c-2.4-2.5-4.9-4.9-7.4-7.3c-0.8-0.8-1.6-1.7-2.4-2.6C4,118.1,4,117.6,4,117z M74.6,52.9c-17,0-33.8,0-50.6,0c0,17.5,0,34.8,0,52.2
	c29.6,0,59.1,0,88.6,0c0-10.3,0-20.4,0-31.1c-0.7,0.5-1.2,0.8-1.5,1.2c-2.3,2.6-4.6,5.3-6.9,8c-2,2.3-3.5,2.3-5.6,0.1
	c-2.5-2.6-5.1-5.2-7.6-7.9c-0.7-0.7-1.4-1-2.4-1c-3.4,0.1-6.7,0-10.1,0c-2.9,0-3.9-1-3.9-3.9c0-5.3,0-10.6,0-15.9
	C74.6,54,74.6,53.4,74.6,52.9z M101.8,77c1.6-1.8,3.6-4.1,5.6-6.5c1.3-1.6,2.8-2.1,4.7-2.1c10.7,0.1,21.5,0,32.2,0
	c0.6,0,1.1,0,1.7,0c0-12.8,0-25.5,0-38.1c-21.9,0-43.7,0-65.5,0c0,12.7,0,25.3,0,38.1c3.3,0,6.4,0,9.6,0c1.6,0,2.8,0.6,4,1.7
	C96.6,72.5,99.2,74.7,101.8,77z M14,120.8c1.3,1.2,2.2,2.3,3.3,3.2c0.5,0.4,1.2,0.8,1.9,0.8c32.8,0,65.6,0,98.4,0
	c0.4,0,0.9,0.1,1.1-0.1c1.2-1.2,2.4-2.5,3.7-3.8C86.3,120.8,50.3,120.8,14,120.8z"/>
<path class="st0" d="M11.7,93.9c-1.6-0.1-2.8-1.4-2.7-3c0.1-1.5,1.4-2.8,3-2.8c1.6,0.1,2.9,1.4,2.8,3.1C14.6,92.9,13.3,94,11.7,93.9
	z"/>
<path class="st0" d="M53.6,77.3c5.4,3,7.5,7.5,7.3,13.4c-0.1,1.4,0,2.9,0,4.3c0,2.3-1.1,3.4-3.4,3.4c-7.6,0-15.2,0-22.8,0
	c-2.2,0-3.3-1.1-3.4-3.3c0-2.3-0.1-4.7,0.1-7.1c0.2-4.2,2.2-7.5,5.6-9.9c0.4-0.3,0.8-0.5,1.2-0.8c-1.9-3.5-1.7-7.2-1.1-10.9
	c0.7-4.5,4.9-7.4,9.5-7.1c4.3,0.3,7.9,3.9,8.1,8.3C55,71,55.4,74.2,53.6,77.3z M55,92.6c0.2-3.7,0.4-7.4-3.3-9.7
	c-3.1-1.9-9-1.7-11.8,0.4c-2.5,1.9-3.5,5.7-2.5,9.3C43.3,92.6,49.1,92.6,55,92.6z M49.1,70.5L49.1,70.5c0-0.7,0.1-1.4,0-2.2
	c-0.1-1.7-1.3-2.9-2.9-3c-1.6-0.1-3.1,0.9-3.3,2.6c-0.2,1.8-0.1,3.6,0.1,5.4c0.2,1.6,1.6,2.5,3.2,2.4c1.5-0.1,2.7-1.2,2.8-2.8
	C49.2,72.1,49.1,71.3,49.1,70.5z"/>
<path class="st0" d="M85.9,92.7c5.7,0,11.5,0,17.2,0c1.9,0,3.2,1.2,3.2,2.9c0,1.6-1.2,2.8-3,2.9c-0.4,0-0.8,0-1.2,0
	c-5.8,0-11.6,0-17.3,0c-5.2,0-10.5,0-15.8,0c-1.9,0-3.1-0.8-3.4-2.1c-0.6-2,0.8-3.7,3-3.7c3.6-0.1,7.3,0,11,0
	C81.7,92.7,83.8,92.7,85.9,92.7z"/>
<path class="st0" d="M73.9,81.9c1.7,0,3.5,0,5.2,0c1.9,0.1,3.2,1.2,3.2,2.8c0,1.6-1.2,2.9-3.1,2.9c-3.5,0.1-7,0.1-10.5,0
	c-2,0-3.2-1.3-3.1-3c0.1-1.7,1.2-2.7,3.2-2.8c0.1,0,0.2,0,0.3,0C70.6,81.9,72.3,81.9,73.9,81.9C73.9,81.9,73.9,81.9,73.9,81.9z"/>
<path class="st0" d="M111.9,41.3c-6.4,0-12.8,0-19.2,0c-0.8,0-1.9-0.1-2.4-0.6c-0.7-0.7-1.2-1.7-1.2-2.7c-0.1-1.1,0.8-2,1.9-2.3
	c0.6-0.2,1.2-0.2,1.9-0.2c12.7,0,25.4,0,38.1,0c0.2,0,0.5,0,0.7,0c1.9,0.1,3.2,1.3,3.2,2.9c0,1.7-1.3,2.9-3.3,2.9
	C125,41.3,118.5,41.3,111.9,41.3z"/>
<path class="st0" d="M111.8,62.2c-6.3,0-12.5,0-18.8,0c-0.6,0-1.2,0-1.9-0.1c-1.2-0.2-2.2-1.4-2.3-2.6c-0.1-1.3,0.8-2.5,2-2.8
	c0.6-0.2,1.3-0.2,2-0.2c12.6,0,25.2,0,37.8,0c2.6,0,4,1,4.1,2.9c0.1,1.9-1.4,2.9-4.1,2.9C124.4,62.2,118.2,62.2,111.8,62.2z"/>
<path class="st0" d="M104.4,51.9c-4,0-8.1,0-12.1,0c-2,0-3.3-1.2-3.3-2.9c0-1.7,1.3-2.9,3.3-2.9c3.7,0,7.4,0,11.1,0
	c4.4,0,8.8,0,13.3,0c1.9,0,3.1,1,3.3,2.6c0.2,1.8-1.1,3.2-3.2,3.2C112.5,52,108.5,51.9,104.4,51.9z"/>
<path class="st0" d="M126.1,46.1c1.6,0,2.9,1.2,2.9,2.8c0,1.6-1.2,3-2.8,3c-1.6,0-3-1.2-3-2.8C123.2,47.5,124.5,46.1,126.1,46.1z"/>
</svg>
