<?xml version="1.0" encoding="utf-8"?>
<!-- Generator: Adobe Illustrator 24.2.1, SVG Export Plug-In . SVG Version: 6.00 Build 0)  -->
<svg version="1.1" id="圖層_1" xmlns="http://www.w3.org/2000/svg" xmlns:xlink="http://www.w3.org/1999/xlink" x="0px" y="0px"
	 viewBox="0 0 155.9 155.9" style="enable-background:new 0 0 155.9 155.9;" xml:space="preserve">
<style type="text/css">
	.st0{fill:#FFFFFF;}
</style>
<path class="st0" d="M116.8,140.4c-1.6,0-3.2,0-4.9,0c-0.2-0.1-0.3-0.2-0.4-0.2c-3.8-0.4-7.3-1.6-10.6-3.5c-0.4-0.2-1.1-0.2-1.6-0.1
	c-3.6,0.9-7.2,2-10.8,2.8c-2.2,0.5-4.6,0.6-6.8,0.9c-2.4,0-4.9,0-7.3,0c-0.3-0.1-0.7-0.2-1.1-0.2c-3.4-0.5-7-0.8-10.3-1.7
	c-19.2-5-33.2-16.7-41.7-34.6c-5.4-11.4-6.9-23.5-4.9-35.9c1.4-9,4.7-17.3,9.9-24.8c1.1-1.5,1.5-3,1.5-4.8c-0.1-7.2,0-14.3,0-21.4
	c0-0.5,0-0.9,0-1.5c4.1,0,8,0,12.1,0c0,2.7,0,5.3,0,8c1.4,0,2.8-0.1,4.1,0c2.4,0.2,4.4-0.5,6.6-1.6c10.7-5.4,22.1-7.4,34-6.2
	c10.2,1,19.7,4.4,28.1,10.1c14.7,10,23.8,23.7,27,41.3c0.4,2.3,0.7,4.7,1,7.1c0,2.4,0,4.9,0,7.3c-0.1,0.4-0.2,0.8-0.2,1.2
	c-0.4,5.3-1.4,10.5-3.2,15.5c-0.5,1.4-0.6,2.5,0.3,3.7c0.5,0.7,0.9,1.5,1.1,2.3c0.7,2.5,1.4,5.1,2,7.6c0,1.6,0,3.3,0,4.9
	c-0.5,2-0.9,3.9-1.5,5.9c-0.9,2.9-2.4,5.6-4.4,8c-1.1-0.9-2.1-1.7-3.1-2.5c7.8-10.1,5.6-23.5-3-30.9c-8.1-6.9-20.6-6.9-28.6,0
	c-8.6,7.6-10.4,19.8-4.1,29.2c2.9,4.4,7,7.5,12.1,8.9c7.6,2.1,14.6,0.6,20.8-4.4c0.9,1,1.7,2,2.7,3.1c-0.3,0.1-0.5,0.2-0.6,0.3
	c-3.5,2.8-7.4,4.6-11.8,5.5C118.3,140.1,117.5,140.3,116.8,140.4z M19.7,80c0.3,30.1,26.5,56,56.2,56.2c0-18.7,0-37.5,0-56.2
	C57.1,80,38.5,80,19.7,80z M19.6,75.9c18.9,0,37.6,0,56.3,0c0-18.8,0-37.5,0-56.4c-2,0.2-3.9,0.3-5.8,0.6c-7.8,1-15,3.5-21.7,7.5
	c-0.3,0.2-0.6,0.4-0.6,0.7c-0.1,1.1,0,2.1,0,3.3c2.7,0,5.3,0,8.1,0c0,2.7,0,5.3,0,8c2.7,0,5.3,0,8,0c0,2.7,0,5.3,0,8
	c2.7,0,5.3,0,8,0c0,6.8,0,13.4,0,20.1c-14.8,0-29.4,0-44.3,0c0-6.3,0-12.6,0-18.9C22.5,57.2,20,66.2,19.6,75.9z M80.1,80
	c0,18.8,0,37.6,0,56.2c3.7,0.3,14-1.5,16.2-3c-10.7-10.4-10.2-25.7-2.5-35.2c3.8-4.8,8.7-8,14.8-9.3c9.6-2.1,17.9,0.7,25,7.6
	c1.8-5.4,2.7-10.8,2.9-16.3C117.5,80,98.8,80,80.1,80z M121,38.4c-12.7,12.7-25.1,25.1-37.5,37.5c3.1,0,6.5-0.1,9.9,0
	c1.3,0,2.2-0.3,3.1-1.3c1.3-1.5,2.7-2.8,4-4.1c1.1,1,2,1.9,2.9,2.7c-0.8,0.9-1.5,1.6-2.5,2.6c3.9,0,7.5,0,11.1,0
	c0.9,0,1.4-0.3,2-0.8c5.4-5.5,10.9-10.9,16.4-16.4c1.9-1.9,1.9-1.9,0.8-4.3c-0.9-2-1.9-3.9-3-6.2c-7.4,7.5-14.7,14.7-21.9,21.9
	c-0.9-0.9-1.8-1.7-2.8-2.7c7.5-7.5,15-15,22.6-22.5C124.4,42.6,122.6,40.4,121,38.4z M107.7,27.5c-2.8-1.3-5.2-2.4-7.6-3.6
	c-0.8-0.4-1.3-0.3-1.9,0.3c-5,5.1-10,10.3-15.2,15.1c-2.3,2.2-3.4,4.4-3.1,7.6c0.3,2.5,0.1,5.1,0.1,7.8c7.3-7.3,14.4-14.4,21.5-21.5
	c1.1,1.1,2,2,2.9,3c-0.3,0.3-0.6,0.7-0.9,1c-6.3,6.3-12.6,12.6-18.9,18.9c-1.5,1.5-3.6,2.8-4.4,4.7c-0.8,1.9-0.2,4.3-0.3,6.5
	c0,1.9,0,3.7,0,5.5c12.5-12.6,25-25.1,37.6-37.8c-2.2-1.7-4.4-3.5-6.8-5.5c-1.4,1.4-2.5,2.7-3.6,3.9c-1-0.9-2-1.8-3.2-2.9
	C105.2,29.6,106.3,28.6,107.7,27.5z M31.7,19.5c0,14.8,0,29.5,0,44.2c1.3,0,2.6,0,4,0c0-0.5,0-0.9,0-1.4c0-13.8,0-27.6,0-41.4
	c0-0.3,0.1-0.6,0-0.9c-0.1-0.3-0.4-0.6-0.6-0.6C33.9,19.4,32.8,19.5,31.7,19.5z M43.6,63.8c0-12.1,0-24.1,0-36.1c-1.4,0-2.6,0-3.9,0
	c0,12.1,0,24,0,36.1C41.1,63.8,42.3,63.8,43.6,63.8z M80,36.1c4.7-4.7,9.5-9.5,14.3-14.3c-4.5-1.3-9.3-2.1-14.3-2.3
	C80,25.3,80,30.8,80,36.1z M119.6,75.9c5.5,0,11.1,0,16.8,0c-0.2-5-0.9-9.8-2.3-14.5C129.2,66.3,124.4,71.1,119.6,75.9z M47.8,35.7
	c0,9.4,0,18.7,0,28c1.4,0,2.6,0,3.9,0c0-9.4,0-18.7,0-28C50.4,35.7,49.1,35.7,47.8,35.7z M59.8,63.8c0-6.8,0-13.3,0-19.9
	c-1.4,0-2.7,0-3.9,0c0,6.7,0,13.3,0,19.9C57.2,63.8,58.4,63.8,59.8,63.8z M63.9,51.8c0,4.1,0,8,0,11.9c1.4,0,2.6,0,3.9,0
	c0-4,0-8,0-11.9C66.5,51.8,65.2,51.8,63.9,51.8z"/>
<path class="st0" d="M112.2,132.3c0-1,0-2.1,0-3c0-0.8-0.2-1.2-1-1.6c-2.9-1.2-4.6-3.5-4.9-6.7c0-0.1,0-0.3,0-0.4
	c0-0.1,0.1-0.2,0.1-0.3c1.2,0,2.4,0,3.7,0c0.1,0.3,0.2,0.6,0.3,1c0.6,2,2.5,3.3,4.4,3c2.1-0.3,3.5-2.1,3.4-4.1
	c-0.1-2.1-1.6-3.7-3.7-3.9c-2.5-0.2-4.7-0.9-6.4-2.8c-3.6-4.2-2.1-10.6,3-12.7c0.9-0.3,1.1-0.8,1-1.6c-0.1-1,0-2,0-3.1
	c1.4,0,2.7,0,4.1,0c0,1.1,0.1,2.1,0,3.2c-0.1,0.8,0.2,1.2,1,1.5c3.1,1.2,5,4,5,7.3c-1.3,0-2.6,0-3.9,0c-0.3-1.9-1.2-3.3-3.2-3.8
	c-2.3-0.5-4.4,0.9-4.9,3.3c-0.4,2.2,1.2,4.4,3.5,4.6c2.4,0.2,4.6,0.8,6.3,2.7c3.9,4.2,2.4,10.8-3,13c-0.3,0.1-0.5,0.2-0.9,0.3
	c0,1.4,0,2.7,0,4.2C114.9,132.3,113.6,132.3,112.2,132.3z"/>
<path class="st0" d="M100.1,112.3c0,1.3,0,2.5,0,3.8c-1.3,0-2.6,0-3.9,0c0-1.3,0-2.5,0-3.8C97.4,112.3,98.7,112.3,100.1,112.3z"/>
<path class="st0" d="M132.3,116.2c-1.4,0-2.6,0-3.9,0c0-1.3,0-2.6,0-3.9c1.3,0,2.6,0,3.9,0C132.3,113.5,132.3,114.8,132.3,116.2z"/>
<path class="st0" d="M43,115.4c-0.8-0.8-1.7-1.7-2.5-2.5c8-8,16-16,24.1-24.1c0.7,0.8,1.6,1.7,2.4,2.6
	C59.1,99.3,51.1,107.4,43,115.4z"/>
<path class="st0" d="M45.7,100.1c-3.3,0-6.1-2.8-6-6.1c0-3.3,2.8-6,6-6c3.3,0,6.1,2.7,6.1,6.1C51.8,97.3,49,100.1,45.7,100.1z
	 M47.7,94.1c0-1.1-0.8-2-1.9-2.1c-1.1,0-2,0.8-2,1.8c-0.1,1.1,0.7,2.1,1.8,2.1C46.7,96.1,47.6,95.3,47.7,94.1z"/>
<path class="st0" d="M61.8,116.2c-3.3,0-6.1-2.8-6-6.1c0-3.3,2.7-6,6-6c3.3,0,6.1,2.7,6.1,6C67.9,113.5,65.1,116.3,61.8,116.2z
	 M63.8,110.2c0-1.1-0.9-2-2-2c-1.1,0-1.9,0.8-2,1.9c-0.1,1.1,0.8,2,1.9,2.1C62.9,112.2,63.8,111.3,63.8,110.2z"/>
</svg>
