<?xml version="1.0" encoding="utf-8"?>
<!-- Generator: Adobe Illustrator 24.2.1, SVG Export Plug-In . SVG Version: 6.00 Build 0)  -->
<svg version="1.1" id="圖層_1" xmlns="http://www.w3.org/2000/svg" xmlns:xlink="http://www.w3.org/1999/xlink" x="0px" y="0px"
	 viewBox="0 0 155.9 155.9" style="enable-background:new 0 0 155.9 155.9;" xml:space="preserve">
<style type="text/css">
	.st0{fill:#FFFFFF;}
</style>
<path class="st0" d="M11,59.9c1.6-2.2,3.1-2.3,4.7-0.1c2.5,3.3,5,6.6,7.5,9.9c0.3,0.4,0.6,0.8,1,1.2c0.6-2.7,1-5.2,1.7-7.7
	c2.7-9.9,7.9-18.2,15.3-25.1c5.8-5.5,12.6-9.4,20.2-11.9c5.3-1.7,10.8-2.5,16.3-2.6c1.6-0.1,2.6,1,2.6,2.3c0,1.3-0.9,2.3-2.5,2.4
	c-4.2,0.2-8.3,0.6-12.4,1.7c-9.4,2.5-17.3,7.4-23.9,14.5c-6.4,6.9-10.4,15.1-12.1,24.4c-0.2,1.1-0.3,2.3-0.5,3.8
	c0.6-0.4,0.9-0.6,1.2-0.9c3.8-2.9,7.5-5.7,11.3-8.5c0.4-0.3,0.8-0.6,1.2-0.8c1.1-0.4,2-0.2,2.7,0.7c0.7,0.9,0.7,1.9-0.1,2.9
	c-0.3,0.4-0.8,0.7-1.2,1c-5.3,4-10.6,8-15.9,12c-1.9,1.4-3,1.3-4.4-0.6C19.9,73.3,15.9,68,12,62.7c-0.4-0.5-0.7-1-1-1.5
	C11,60.8,11,60.3,11,59.9z"/>
<path class="st0" d="M75.6,102.3c0-1.3,0-2.4,0-3.6c0-5.9,0-11.7,0-17.6c0-0.9-0.2-1.3-1.2-1.5c-5-0.8-9.3-2.8-12.5-6.7
	c-5.4-6.6-4-15.5,3.2-20.7c3.1-2.3,6.6-3.4,10.4-3.9c0-1.4,0-2.7,0-4.1c0.1-1.7,0.9-2.7,2.4-2.7c1.5,0,2.3,1,2.4,2.7
	c0.1,1.3,0.1,2.6,0.1,3.9c0,0.1,0.1,0.1,0.1,0.2c3.1,0.4,6.2,1.3,9,3.1c4.3,2.7,7.2,6.4,7.8,11.6c0.1,0.5,0.1,1,0,1.5
	c-0.2,1.3-1.1,2-2.4,2c-1.1,0-1.9-0.8-2.3-2c-0.4-1.6-0.6-3.4-1.4-4.8c-2-3.6-5.4-5.3-9.3-6.2c-0.5-0.1-0.9-0.2-1.5-0.3
	c0,7.4,0,14.8,0,22.1c2,0.6,4.1,1,6,1.7c4.7,1.9,8.4,5,10.1,10c2,5.8-0.2,12.1-5.7,16.1c-2.6,1.9-5.6,3.2-8.8,3.7
	c-0.5,0.1-1.1,0.2-1.7,0.3c0,1.4,0,2.7,0,4.1c-0.1,1.7-0.9,2.7-2.4,2.7s-2.3-1-2.4-2.7c-0.1-1.3-0.1-2.6-0.1-3.9
	c0-0.1-0.1-0.1-0.1-0.2c-3.7-0.5-7.2-1.6-10.3-3.9c-3.6-2.7-6-6.2-6.4-10.8c-0.1-0.5-0.1-1,0-1.4c0.2-1.3,1.1-2,2.4-2
	c1.2,0.1,1.9,0.8,2.2,2c0.4,1.6,0.6,3.4,1.4,4.8C67.1,99.8,71,101.5,75.6,102.3z M75.6,53.2c-3.2,0.3-6.1,1.5-8.5,3.5
	c-2.4,2.1-3.8,4.7-3.7,8c0.4,6.2,7.3,10.1,12.1,10.2C75.6,67.7,75.6,60.5,75.6,53.2z M80.4,102.2c3.2-0.4,6.1-1.5,8.6-3.7
	c2.9-2.5,4.3-5.7,3.3-9.6c-1.3-5.2-7.4-8.5-11.8-8.6C80.4,87.6,80.4,94.9,80.4,102.2z"/>
<path class="st0" d="M132,84.6c-1.1,3.9-1.9,7.9-3.2,11.7c-2.8,8-7.5,14.9-13.7,20.7c-5.9,5.5-12.6,9.5-20.2,12.1
	c-5.3,1.8-10.8,2.5-16.4,2.7c-1.6,0.1-2.6-0.9-2.7-2.3c-0.1-1.3,0.9-2.3,2.5-2.5c4-0.5,8.1-0.8,12-1.7c8-1.8,15-5.8,21.1-11.3
	c8.1-7.5,13.2-16.6,15.3-27.5c0.2-1.2,0.4-2.4,0.6-3.9c-0.5,0.3-0.8,0.5-1.1,0.7c-3.9,3-7.9,5.9-11.8,8.9c-1,0.8-2,1.1-3,0.3
	c-0.6-0.5-1-1.5-1-2.2c0-0.6,0.5-1.4,1.1-1.8c5.6-4.3,11.2-8.5,16.8-12.7c1.4-1.1,2.6-0.9,3.7,0.6c4.1,5.4,8.2,10.9,12.3,16.4
	c1.1,1.5,1,2.8-0.2,3.7c-1.1,0.9-2.6,0.5-3.6-0.9c-2.6-3.4-5.2-6.8-7.7-10.2C132.5,85.2,132.2,84.9,132,84.6z"/>
</svg>
