<?xml version="1.0" encoding="utf-8"?>
<!-- Generator: Adobe Illustrator 24.2.1, SVG Export Plug-In . SVG Version: 6.00 Build 0)  -->
<svg version="1.1" id="圖層_1" xmlns="http://www.w3.org/2000/svg" xmlns:xlink="http://www.w3.org/1999/xlink" x="0px" y="0px"
	 viewBox="0 0 155.9 155.9" style="enable-background:new 0 0 155.9 155.9;" xml:space="preserve">
<style type="text/css">
	.st0{fill:#FFFFFF;}
</style>
<path class="st0" d="M137.6,120.8c-0.5,2.3-1.3,4.4-3.1,6c-2.1,2-4.7,2.8-7.7,2.8c-12,0-23.9,0-35.8,0c-20.7,0-41.5,0-62.2,0
	c-4.3,0-7.7-1.7-9.7-5.6c-1.2-2.3-1.3-4.7-0.9-7.2c0.3-1.9,1.7-2.9,3.8-3.2c0-0.5,0-1,0-1.5c0-18.5,0-37,0-55.6
	c0-4.3,1.7-7.7,5.7-9.6c0.9-0.5,2-0.8,3.1-0.9c1-0.1,1.2-0.4,1.2-1.3c-0.2-2.7,0.8-4.9,3.4-6.1c1-0.5,2.2-0.6,3.4-0.6
	c7.9,0,15.7,0,23.6,0c0.4,0,0.9,0,1.5,0c0-1.8,0-3.4,0-5.1c0-4.4,2.4-6.8,6.9-6.8c15.4,0,30.7,0,46.1-0.1c3.9,0,7,2.5,6.8,6.9
	c-0.1,4,0,8-0.1,12c0,0.6,0,1.1,0.8,1.2c5.6,0.7,9.1,4.6,9.1,10.2c0,5.8,0,11.6,0,17.4c0,12.9,0,25.8,0,38.6c0,0.4,0,0.8,0,1.3
	c2.1,0.1,3.3,1.3,4,3.1C137.6,118.1,137.6,119.4,137.6,120.8z M67.8,81.8c0,0.5,0,0.9,0,1.4c0,2.8,0.1,5.7,0,8.5
	c0,0.6-0.6,1.5-1.1,1.8c-0.5,0.2-1.4-0.1-2.1-0.3c-0.3-0.1-0.5-0.4-0.8-0.7c-3.3-3.3-6.6-6.7-10-10c-0.4-0.4-1-0.7-1.6-0.7
	c-4.4,0-8.9-0.1-13.3,0C35,82,31.9,79.4,32,75c0.1-7.9,0-15.7,0-23.6c0-0.4,0-0.9,0-1.4c-0.7,0.1-1.1,0.1-1.6,0.2
	c-2.8,0.8-4.4,3.1-4.4,6.4c0,18.7,0,37.4,0,56c0,0.3,0,0.7,0.1,1.1c34.5,0,69,0,103.5,0c0-0.4,0.1-0.7,0.1-1.1c0-18.7,0-37.4,0-56.2
	c0-0.7-0.1-1.4-0.3-2.1c-0.7-2.6-3.3-4.5-5.7-4.2c0,0.4,0,0.8,0,1.2c0,3.8-0.1,7.7,0,11.6c0.2,4.5-3,7.1-6.9,6.9
	c-1.7-0.1-3.5-0.1-5.2,0c-0.6,0-1.3,0.3-1.7,0.7c-3.3,3.3-6.6,6.6-9.9,9.9c-0.2,0.2-0.5,0.6-0.8,0.7c-0.7,0.2-1.6,0.6-2.1,0.3
	c-0.5-0.2-1.1-1.1-1.2-1.8c-0.1-1.8,0-3.6,0-5.4c0-1.5,0-2.9,0-4.4c-1.4,0-2.6,0-4,0c0,1.8,0,3.5,0,5.2c0,4.2-2.4,6.6-6.7,6.7
	c-5.3,0-10.6,0-15.9,0C68.8,81.8,68.4,81.8,67.8,81.8z M63.4,86.8c0.1-0.1,0.3-0.2,0.4-0.3c0-2,0-4,0-5.9c0-2.1,0.7-2.8,2.8-2.8
	c6.1,0,12.3,0,18.4,0c2,0,2.7-0.7,2.7-2.6c0-10.2,0-20.4,0-30.6c0-1.9-0.7-2.6-2.6-2.6c-15.6,0-31.1,0-46.7,0
	c-1.8,0-2.5,0.7-2.5,2.6c0,10.2,0,20.5,0,30.7c0,1.9,0.7,2.6,2.6,2.6c1.7,0,3.5,0,5.2,0c3.6,0,7.1,0.1,10.7,0.1
	c2.6,2.5,5.2,5,7.8,7.5C62.8,85.8,63.1,86.4,63.4,86.8z M99.7,75c2.8-2.9,5.4-5.4,8-8.1c0.7-0.8,1.6-1.1,2.7-1.1c2.1,0,4.2,0,6.3,0
	c2.3,0,2.9-0.6,2.9-2.9c0-10,0-20,0-30c0-2.4-0.5-3-3-3c-15.2,0-30.5,0-45.7,0c-0.5,0-1.1-0.1-1.5,0.1c-0.5,0.3-1.3,0.9-1.3,1.4
	c-0.1,2.1-0.1,4.2-0.1,6.4c0.5,0,0.9,0,1.3,0c5.2,0,10.4,0,15.6,0c0.8,0,1.7,0.1,2.5,0.3c2.7,0.8,4.3,3.1,4.3,6.3
	c0,6.6,0,13.2,0,19.8c0,0.4,0,0.9,0,1.3c0.2,0.1,0.3,0.1,0.3,0.1c1.6,0,3.3,0,4.9,0c2,0,2.7,0.6,2.7,2.7
	C99.7,70.6,99.7,72.6,99.7,75z M22.1,117.7c-0.7,4.7,1.9,7.9,6.6,7.9c32.7,0,65.4,0,98.1,0c4.7,0,7.4-3.2,6.6-7.9
	c-15.2,0-30.4,0-45.6,0c-1,2.9-2,3.9-4.4,3.9c-3.8,0-7.6,0-11.4,0c-2.3,0-3.6-1.2-4.2-3.3c0-0.2-0.1-0.4-0.2-0.6
	C52.5,117.7,37.3,117.7,22.1,117.7z"/>
<path class="st0" d="M32.1,85.8c1.3,0,2.5,0,3.9,0c0,6.6,0,13.2,0,19.8c28.6,0,57.1,0,85.7,0c0-6.6,0-13.2,0-19.8c1.3,0,2.6,0,4,0
	c0,0.4,0.1,0.8,0.1,1.2c0,6,0,12,0,18c0,3.1-1.5,4.7-4.6,4.7c-28.1,0-56.3,0-84.4,0c-3.1,0-4.6-1.5-4.6-4.6c0-6.1,0-12.1,0-18.2
	C32,86.6,32,86.2,32.1,85.8z"/>
<path class="st0" d="M44,53.8c0-1.3,0-2.5,0-3.8c11.9,0,23.8,0,35.7,0c0,1.3,0,2.5,0,3.8C67.9,53.8,56,53.8,44,53.8z"/>
<path class="st0" d="M79.7,58c0,1.3,0,2.5,0,3.8c-11.9,0-23.8,0-35.7,0c0-1.3,0-2.5,0-3.8C55.9,58,67.8,58,79.7,58z"/>
<path class="st0" d="M44,69.8c0-1.3,0-2.5,0-3.8c11.9,0,23.8,0,35.7,0c0,1.3,0,2.5,0,3.8C67.8,69.8,56,69.8,44,69.8z"/>
<path class="st0" d="M95.8,49.8c0-1.3,0-2.5,0-3.8c5.3,0,10.5,0,15.8,0c0,1.3,0,2.5,0,3.8C106.4,49.8,101.2,49.8,95.8,49.8z"/>
<path class="st0" d="M111.6,38c0,1.3,0,2.5,0,3.8c-5.3,0-10.5,0-15.8,0c0-1.3,0-2.5,0-3.8C101.1,38,106.3,38,111.6,38z"/>
<path class="st0" d="M111.6,57.8c-5.3,0-10.5,0-15.8,0c0-1.3,0-2.5,0-3.9c5.3,0,10.5,0,15.8,0C111.6,55.3,111.6,56.5,111.6,57.8z"/>
</svg>
