<?xml version="1.0" encoding="utf-8"?>
<!-- Generator: Adobe Illustrator 24.2.1, SVG Export Plug-In . SVG Version: 6.00 Build 0)  -->
<svg version="1.1" id="圖層_1" xmlns="http://www.w3.org/2000/svg" xmlns:xlink="http://www.w3.org/1999/xlink" x="0px" y="0px"
	 viewBox="0 0 181.5 60" style="enable-background:new 0 0 181.5 60;" xml:space="preserve">
<style type="text/css">
	.st0{fill:url(#SVGID_1_);}
	.st1{fill:url(#SVGID_2_);}
	.st2{fill:url(#SVGID_3_);}
	.st3{fill:url(#SVGID_4_);}
	.st4{fill:url(#SVGID_5_);}
	.st5{fill:url(#SVGID_6_);}
	.st6{fill:#F39800;}
	.st7{fill:url(#SVGID_7_);}
</style>
<linearGradient id="SVGID_1_" gradientUnits="userSpaceOnUse" x1="7.5417" y1="39.8869" x2="29.3783" y2="77.478" gradientTransform="matrix(1 0 0 1 0 -11)">
	<stop  offset="0" style="stop-color:#F7D894"/>
	<stop  offset="0.2523" style="stop-color:#C59510"/>
	<stop  offset="0.662" style="stop-color:#FBE5B7"/>
	<stop  offset="1" style="stop-color:#D09D13"/>
</linearGradient>
<path class="st0" d="M8.8,18.8c-3.7,6.9-3.7,15.3-0.1,22.3l-3.6,5.7c-7.9-11.7-6.7-27.7,3.7-38V18.8L8.8,18.8z"/>
<linearGradient id="SVGID_2_" gradientUnits="userSpaceOnUse" x1="17.7145" y1="33.9775" x2="39.5511" y2="71.5686" gradientTransform="matrix(1 0 0 1 0 -11)">
	<stop  offset="0" style="stop-color:#F7D894"/>
	<stop  offset="0.2523" style="stop-color:#C59510"/>
	<stop  offset="0.662" style="stop-color:#FBE5B7"/>
	<stop  offset="1" style="stop-color:#D09D13"/>
</linearGradient>
<path class="st1" d="M51.2,41.1v13.5l-2.6-1.1c-10.3,8.2-24.6,8.6-35.3,1.4l5.7-3.6c8.9,4.6,20.2,3.3,27.7-4
	c0.1-0.1,0.2-0.2,0.3-0.3s0.2-0.2,0.3-0.3C48.8,45,50.1,43.1,51.2,41.1z"/>
<linearGradient id="SVGID_3_" gradientUnits="userSpaceOnUse" x1="69.2515" y1="50.4889" x2="42.2072" y2="38.2762" gradientTransform="matrix(1 0 0 1 0 -11)">
	<stop  offset="0" style="stop-color:#F39800"/>
	<stop  offset="1" style="stop-color:#E83828"/>
</linearGradient>
<path class="st2" d="M51.2,51.1v-10c3.6-6.9,3.6-15.3,0-22.2l3.6-5.7C62.6,24.8,61.4,40.8,51.2,51.1z"/>
<linearGradient id="SVGID_4_" gradientUnits="userSpaceOnUse" x1="11.6467" y1="46.0177" x2="23.8731" y2="58.2156" gradientTransform="matrix(1 0 0 1 0 -11)">
	<stop  offset="1.065560e-07" style="stop-color:#F39800"/>
	<stop  offset="0.3" style="stop-color:#E4C297"/>
	<stop  offset="0.7142" style="stop-color:#EA5514"/>
	<stop  offset="1" style="stop-color:#F39800"/>
</linearGradient>
<path class="st3" d="M23.9,24c-0.4,0.4-0.8,0.8-1.1,1.3l-12,19.2l-3.3,5.3l-1,1.6c-0.9,1.4,0.7,3,2.1,2.1l1.6-1l5.3-3.4l19.1-12
	c0.5-0.3,0.9-0.7,1.3-1.1L23.9,24z"/>
<linearGradient id="SVGID_5_" gradientUnits="userSpaceOnUse" x1="47.5625" y1="35.3928" x2="35.4809" y2="23.3394" gradientTransform="matrix(1 0 0 1 0 -11)">
	<stop  offset="0" style="stop-color:#F7D894"/>
	<stop  offset="0.37" style="stop-color:#C59510"/>
	<stop  offset="0.7" style="stop-color:#FBE5B7"/>
	<stop  offset="1" style="stop-color:#D09D13"/>
</linearGradient>
<path class="st4" d="M37,34.7l12-19.2l3.3-5.3l1-1.6c0.9-1.4-0.7-3-2.1-2.1l-1.6,1l-5.3,3.4l-19.1,12c-0.5,0.3-0.9,0.7-1.3,1.1
	l12,12C36.3,35.6,36.7,35.2,37,34.7z"/>
<linearGradient id="SVGID_6_" gradientUnits="userSpaceOnUse" x1="14.1863" y1="23.6647" x2="39.5291" y2="10.0285" gradientTransform="matrix(1 0 0 1 0 -11)">
	<stop  offset="0" style="stop-color:#F39800"/>
	<stop  offset="1" style="stop-color:#E83828"/>
</linearGradient>
<path class="st5" d="M46.7,5.1L41,8.7c-8.9-4.6-20.2-3.3-27.8,4.1c-0.1,0.1-0.1,0.1-0.2,0.2c-0.1,0.1-0.1,0.1-0.2,0.2
	c-1.6,1.7-3,3.5-4,5.5V5.1l2.7,1.3C21.7-1.7,36-2.1,46.7,5.1z"/>
<path class="st6" d="M13.2,12.8l-0.4,0.4c0.1-0.1,0.1-0.1,0.2-0.2C13.1,12.9,13.1,12.9,13.2,12.8z"/>
<linearGradient id="SVGID_7_" gradientUnits="userSpaceOnUse" x1="46.5698" y1="58" x2="47.1526" y2="58" gradientTransform="matrix(1 0 0 1 0 -11)">
	<stop  offset="0" style="stop-color:#E6E7EA"/>
	<stop  offset="0.2275" style="stop-color:#E7E7E8"/>
	<stop  offset="0.4301" style="stop-color:#EAE8E0"/>
	<stop  offset="0.6226" style="stop-color:#EEE9D3"/>
	<stop  offset="0.7291" style="stop-color:#F1EAC9"/>
	<stop  offset="0.8618" style="stop-color:#F4EAB9"/>
	<stop  offset="1" style="stop-color:#F8EAA3"/>
</linearGradient>
<path class="st7" d="M47.1,46.7c-0.1,0.1-0.2,0.2-0.3,0.3s-0.2,0.2-0.3,0.3L47.1,46.7z"/>
<g>
	<g>
		<path d="M79.6,28.8l-0.4-2.2c0.6-0.1,1.6-0.2,3-0.4c0.6-0.1,1.1-0.2,1.4-0.2v-7h-4.1v-2h4.1v-2.3H81v-1c-0.4,0.4-0.6,0.6-0.8,0.8
			c-0.4-0.7-0.9-1.2-1.5-1.5c2.1-1.7,3.7-3.9,4.9-6.5h2c2.1,1.8,3.6,3.4,4.5,4.7l-1.5,1.6v1.9h-2.9V17h3.7v2h-3.7v6.6l4.1-0.7l0.1,2
			c-2.3,0.4-5.6,1-9.9,1.7C79.8,28.8,79.7,28.8,79.6,28.8z M81,25c-0.1-1-0.4-2.5-0.9-4.4l1.6-0.4c0.6,1.5,0.9,3,1.1,4.3L81,25z
			 M81.9,12.8h6.5c-1.1-1.5-2.2-2.9-3.5-4.1C84,10.2,83,11.6,81.9,12.8z M87.9,24.7l-1.6-0.4c0.6-1.6,0.9-3,1.1-4.2l1.9,0.5
			c-0.1,0.3-0.3,0.8-0.5,1.4C88.5,23.2,88.1,24.2,87.9,24.7z M94,29.3c0-0.8-0.3-1.5-0.7-2.2c0.9,0.1,2,0.1,3.3,0.1
			c0.4,0,0.8-0.1,1-0.4c0.4-0.4,0.7-1.7,0.9-3.8c0.3-2.1,0.4-5.5,0.6-10.2h-6.3c-0.7,1.3-1.4,2.4-2.2,3.3c-0.6-0.6-1.3-1.1-2-1.4
			c0.9-0.9,1.8-2.1,2.5-3.6c0.7-1.4,1.2-3,1.6-4.6L95,6.9c-0.3,1.2-0.7,2.5-1.3,3.8h7.6c0,0.4,0,0.8,0,1.1
			c-0.2,5.6-0.4,9.6-0.7,11.9c-0.3,2.3-0.6,3.8-1.1,4.4c-0.3,0.4-0.6,0.7-0.9,0.8c-0.3,0.1-0.7,0.3-1.1,0.3
			C96.8,29.4,95.6,29.4,94,29.3z M90.8,24.4L90,22.3c1.8-0.4,4.2-1,7.1-1.7l0.2,2C94.8,23.3,92.7,23.9,90.8,24.4z M90.9,18v-2.1h6v2
			L90.9,18L90.9,18z"/>
		<path d="M106.4,27.7v-7c-0.3,0.6-0.7,1.2-1.1,1.8c-0.1-0.3-0.3-0.6-0.6-1.1c-0.3-0.4-0.5-0.8-0.7-1c1.6-2.2,2.8-5.8,3.5-10.6h-3
			V7.6h9.6v2.1h-4.4c-0.3,2-0.7,3.8-1.1,5.3h4.9v10.7h-5.1v2H106.4L106.4,27.7z M108.4,23.7h3V17h-3V23.7z M114,29.4
			c-0.5-0.6-1-1.2-1.6-1.6c2.4-0.9,4.1-2,5.3-3.3l2.2,0.8c-0.7,0.8-1.6,1.6-2.7,2.4C116.2,28.3,115.1,28.9,114,29.4z M125.5,29.4
			c-0.8-1.1-2.2-2.5-4-3.9l1.7-1h-7.9V11.7h3.6c0.1-0.7,0.3-1.4,0.4-2h-4.7V7.5h12.1v2.1h-4.9c-0.1,0.3-0.3,0.8-0.4,1.5
			c-0.1,0.3-0.1,0.4-0.1,0.6h4.7v12.8h-2.7c1.8,1.3,3.2,2.6,4.1,3.7L125.5,29.4z M117.4,15.4h6.2v-1.8h-6.3L117.4,15.4L117.4,15.4z
			 M117.4,18.9h6.2v-1.8h-6.3L117.4,18.9L117.4,18.9z M117.4,22.6h6.2v-1.9h-6.3L117.4,22.6L117.4,22.6z"/>
		<path d="M130.7,29.3c-0.1-0.8-0.3-1.4-0.6-2.1c1.1,0.1,1.9,0.1,2.4,0c0.3,0,0.4-0.2,0.4-0.5v-5.8c-0.1,0.1-0.3,0.1-0.6,0.2
			c-1.1,0.4-1.9,0.6-2.4,0.8l-0.7-2.4c0.8-0.2,2.1-0.5,3.7-1v-5.2h-3.4v-2.1h3.4V6.5h2.3v4.7h2.6v2.1h-2.6v4.5l2.3-0.6l0.2,2
			c-0.9,0.3-1.8,0.6-2.6,0.9v6.6c0,0.6-0.1,1.1-0.2,1.4c-0.1,0.3-0.4,0.6-0.8,0.8C133.6,29.2,132.4,29.4,130.7,29.3z M137.7,29.4
			c-0.3-0.8-0.7-1.5-1.2-2.1c2.4-0.5,4.4-1.3,6.3-2.5c-1.4-1.4-2.5-3.1-3.3-5.1l1.6-0.5h-2.3v-2.1h10.1l0.4-0.1l1.5,0.6
			c-0.8,2.9-2.3,5.3-4.3,7.2c1.7,1.1,3.8,1.9,6.1,2.4c-0.6,0.7-1.1,1.4-1.5,2.1c-2.5-0.6-4.7-1.6-6.5-3
			C142.6,27.7,140.3,28.7,137.7,29.4z M138.8,16.8c-0.1-0.2-0.4-0.5-0.7-0.9s-0.6-0.6-0.8-0.8c1.1-0.7,1.9-1.5,2.3-2.5
			c0.3-0.8,0.5-1.6,0.5-2.7V7.4h8.4v5.7c0,0.3,0,0.5,0.1,0.6s0.2,0.1,0.4,0.1h1.1c0.2,0,0.4-0.2,0.4-0.5c0.1-0.3,0.1-1.1,0.1-2.3
			c0.4,0.4,1.1,0.6,1.9,0.8c-0.1,1.5-0.3,2.5-0.6,3s-0.9,0.8-1.6,0.8h-1.7c-0.9,0-1.5-0.2-1.8-0.5c-0.3-0.4-0.5-1-0.5-2V9.6h-4V10
			C142.3,13.1,141.1,15.4,138.8,16.8z M144.6,23.4c1.4-1.2,2.4-2.6,3.1-4.2h-6.1C142.3,20.8,143.3,22.2,144.6,23.4z"/>
		<path d="M155.2,15.4l-0.7-1.9c1.4-0.3,3.9-0.9,7.4-1.7l0.2,1.7C159.8,14.2,157.4,14.8,155.2,15.4z M156.5,29.4
			c-0.7-0.8-1.3-1.4-1.7-1.7c3.1-0.6,5.6-1.4,7.2-2.3l2.1,1c-1,0.6-2.2,1.2-3.6,1.8C159.2,28.7,157.8,29.1,156.5,29.4z M155.4,10.1
			V8.3h6.5v1.8H155.4z M158,25.3v-10h5c-0.3-0.6-0.6-1.1-1-1.5c1.9-0.3,3.4-0.8,4.3-1.4c0.8-0.6,1.4-1.4,1.7-2.5h-2.2
			c-0.6,0.8-1.3,1.5-2.1,2.1c-0.5-0.5-1.1-0.9-1.8-1.1c1.7-1.1,2.9-2.6,3.7-4.4l2.1,0.3c-0.2,0.5-0.5,1-0.8,1.4h8l0.4-0.1l1.5,0.4
			c-0.8,1.5-1.6,2.8-2.4,3.6l-1.8-0.6c0.3-0.4,0.8-0.9,1.3-1.7h-3.4c0.3,1,0.9,1.8,1.8,2.5c1.1,0.8,2.9,1.3,5.2,1.6
			c-0.6,0.6-0.9,1.2-1.2,1.9c-0.6-0.1-1.3-0.3-1.9-0.4v9.9H158L158,25.3z M160.2,18.2h11.7v-1.4h-11.7V18.2z M160.2,21h11.7v-1.4
			h-11.7V21z M160.2,23.9h11.7v-1.4h-11.7V23.9z M163.7,15.3h10.1c-2.2-0.7-3.7-1.8-4.6-3.3C168.3,13.6,166.4,14.7,163.7,15.3z
			 M174.4,29.4c-1.7-0.9-3.9-1.9-6.7-2.8l1.9-1.2c3.1,1,5.6,2,7.4,2.9L174.4,29.4z"/>
	</g>
	<g>
		<path d="M79.4,50.2V40.1h1.8l1.9,5.2c0.1,0.3,0.2,0.6,0.4,1.1c0.1,0.4,0.3,0.8,0.3,0.9h0.1c0.1-0.2,0.2-0.6,0.3-1
			c0.1-0.5,0.3-0.8,0.3-1.1l1.8-5.2h1.9v10.1h-1.5v-5.1c0-0.6,0.1-1.6,0.2-3c0-0.1,0-0.1,0-0.2h-0.1l-0.8,2.4l-1.8,4.9h-1l-1.8-4.9
			l-0.8-2.4h-0.1c0,0.1,0,0.3,0.1,0.6c0.1,1.2,0.1,2.1,0.1,2.5V50h-1.3V50.2z"/>
		<path d="M93.8,50.4c-1,0-1.8-0.3-2.5-1c-0.7-0.8-1.1-1.7-1.1-3c0-1.2,0.4-2.2,1.1-3c0.7-0.7,1.5-1.1,2.5-1.1c1,0,1.8,0.4,2.5,1.1
			c0.7,0.8,1.1,1.8,1.1,3c0,1.2-0.4,2.2-1.1,3C95.6,50,94.8,50.4,93.8,50.4z M92.3,48.3c0.4,0.5,0.8,0.7,1.4,0.7s1.1-0.3,1.4-0.7
			c0.4-0.5,0.5-1.1,0.5-1.9s-0.2-1.5-0.5-2c-0.4-0.5-0.8-0.8-1.4-0.8s-1.1,0.3-1.4,0.8c-0.4,0.5-0.5,1.1-0.5,1.9
			C91.8,47.2,92,47.8,92.3,48.3z"/>
		<path d="M99.1,50.2v-7.5h1.3l0.1,1.4l0,0c0.3-0.5,0.6-0.9,1-1.1c0.4-0.3,0.8-0.4,1.2-0.4c0.3,0,0.6,0.1,0.9,0.2l-0.3,1.4
			c-0.3-0.1-0.5-0.1-0.8-0.1c-0.3,0-0.7,0.1-1,0.4c-0.4,0.3-0.6,0.7-0.9,1.3v4.7h-1.5V50.2z"/>
		<path d="M107.2,53.6c-0.9,0-1.7-0.2-2.3-0.5c-0.6-0.4-0.9-0.9-0.9-1.5c0-0.7,0.4-1.2,1.1-1.7v-0.1c-0.5-0.3-0.7-0.7-0.7-1.3
			c0-0.5,0.3-1,0.8-1.4V47c-0.3-0.2-0.5-0.5-0.7-0.8c-0.2-0.4-0.3-0.8-0.3-1.2c0-0.8,0.3-1.5,0.9-2s1.3-0.7,2.1-0.7
			c0.4,0,0.8,0.1,1.1,0.2h2.7v1.2h-1.3c0.3,0.4,0.5,0.8,0.5,1.4c0,0.8-0.3,1.4-0.8,1.9c-0.5,0.5-1.2,0.7-2,0.7
			c-0.4,0-0.7-0.1-1.1-0.2c-0.3,0.3-0.4,0.5-0.4,0.8c0,0.5,0.4,0.8,1.3,0.8h1.4c0.9,0,1.6,0.1,2.1,0.4c0.5,0.3,0.7,0.8,0.7,1.4
			c0,0.8-0.4,1.4-1.1,1.9C109.4,53.4,108.4,53.6,107.2,53.6z M107.5,52.6c0.6,0,1.2-0.1,1.6-0.4c0.4-0.3,0.6-0.6,0.6-0.9
			c0-0.3-0.1-0.5-0.4-0.6c-0.2-0.1-0.6-0.2-1.1-0.2h-1.1c-0.3,0-0.7,0-1-0.1c-0.4,0.3-0.6,0.7-0.6,1.1c0,0.4,0.2,0.7,0.6,0.9
			C106.4,52.4,106.9,52.6,107.5,52.6z M107.3,46.7c0.4,0,0.8-0.1,1-0.4c0.3-0.3,0.4-0.7,0.4-1.2s-0.1-0.9-0.4-1.2
			c-0.3-0.3-0.6-0.4-1-0.4s-0.8,0.1-1,0.4c-0.3,0.3-0.4,0.7-0.4,1.2s0.1,0.9,0.4,1.2C106.6,46.6,106.9,46.7,107.3,46.7z"/>
		<path d="M114.1,50.4c-0.7,0-1.2-0.2-1.6-0.6c-0.4-0.4-0.6-0.9-0.6-1.6c0-0.8,0.4-1.4,1.1-1.9c0.7-0.4,1.9-0.8,3.5-0.9
			c0-1.1-0.5-1.7-1.4-1.7c-0.7,0-1.4,0.3-2.2,0.8l-0.6-1.1c1.1-0.7,2.1-1,3.1-1c0.9,0,1.6,0.3,2.1,0.9c0.4,0.6,0.7,1.3,0.7,2.4v4.7
			h-1.3l-0.1-0.9h-0.1C115.7,50,114.9,50.4,114.1,50.4z M114.6,49.1c0.6,0,1.2-0.3,1.8-0.9v-1.9c-1.1,0.1-1.9,0.3-2.4,0.6
			c-0.4,0.3-0.7,0.6-0.7,1.1c0,0.4,0.1,0.6,0.3,0.8C114,49,114.2,49.1,114.6,49.1z"/>
		<path d="M120.3,50.2v-7.5h1.3l0.1,1.1h0.1c0.4-0.4,0.8-0.7,1.1-0.9c0.4-0.3,0.9-0.4,1.4-0.4c1.6,0,2.3,1,2.3,3v4.8H125v-4.6
			c0-0.7-0.1-1.1-0.3-1.4c-0.2-0.3-0.5-0.4-1-0.4c-0.3,0-0.6,0.1-0.9,0.3c-0.3,0.1-0.6,0.4-0.9,0.8v5.4L120.3,50.2L120.3,50.2z"/>
		<path d="M136.1,50.4c-1.3,0-2.4-0.4-3.2-1.4c-0.9-1-1.3-2.3-1.3-3.9c0-1.6,0.4-2.9,1.3-3.9c0.9-0.9,1.9-1.4,3.3-1.4
			c0.6,0,1.2,0.1,1.7,0.4c0.5,0.2,0.9,0.5,1.2,0.9l-0.9,1c-0.6-0.6-1.3-0.9-2-0.9c-0.9,0-1.6,0.3-2.1,1c-0.6,0.7-0.8,1.6-0.8,2.8
			s0.2,2.2,0.8,2.9c0.5,0.7,1.3,1.1,2.1,1.1c0.9,0,1.6-0.4,2.3-1.1l0.9,1C138.4,49.9,137.3,50.4,136.1,50.4z"/>
		<path d="M142.6,50.4c-0.7,0-1.2-0.2-1.6-0.6c-0.4-0.4-0.6-0.9-0.6-1.6c0-0.8,0.4-1.4,1.1-1.9c0.7-0.4,1.9-0.8,3.5-0.9
			c0-1.1-0.5-1.7-1.4-1.7c-0.7,0-1.4,0.3-2.2,0.8l-0.6-1.1c1.1-0.7,2.1-1,3.1-1c0.9,0,1.6,0.3,2.1,0.9c0.4,0.6,0.7,1.3,0.7,2.4v4.7
			h-1.3l-0.1-0.9l0,0C144.2,50,143.4,50.4,142.6,50.4z M143.1,49.1c0.6,0,1.2-0.3,1.8-0.9v-1.9c-1.1,0.1-1.9,0.3-2.4,0.6
			c-0.4,0.3-0.7,0.6-0.7,1.1c0,0.4,0.1,0.6,0.3,0.8C142.4,49,142.7,49.1,143.1,49.1z"/>
		<path d="M148.8,53.3V42.6h1.3l0.1,0.8h0.1c0.8-0.7,1.6-1,2.3-1c0.9,0,1.7,0.4,2.3,1.1c0.5,0.7,0.8,1.6,0.8,2.8c0,1.3-0.3,2.3-1,3
			c-0.6,0.7-1.4,1.1-2.3,1.1c-0.7,0-1.3-0.3-2-0.9v1.3v2.5L148.8,53.3L148.8,53.3z M152,49c0.6,0,1-0.3,1.4-0.7
			c0.4-0.5,0.6-1.2,0.6-2.1c0-1.7-0.6-2.6-1.8-2.6c-0.6,0-1.2,0.3-1.8,0.9v3.7C150.9,48.8,151.4,49,152,49z"/>
		<path d="M158.2,41.2c-0.3,0-0.5-0.1-0.7-0.3c-0.2-0.2-0.3-0.4-0.3-0.7s0.1-0.5,0.3-0.7c0.2-0.2,0.4-0.3,0.7-0.3s0.5,0.1,0.7,0.3
			c0.2,0.2,0.3,0.4,0.3,0.7s-0.1,0.5-0.3,0.7C158.7,41.1,158.5,41.2,158.2,41.2z M157.4,50.2v-7.5h1.6v7.5H157.4z"/>
		<path d="M163.9,50.4c-1.6,0-2.3-0.9-2.3-2.7v-3.9h-1.1v-1.2l1.2-0.1l0.2-2.1h1.3v2.1h2v1.3h-2v3.9c0,0.9,0.4,1.4,1.1,1.4
			c0.3,0,0.5-0.1,0.8-0.2l0.3,1.2C164.9,50.3,164.4,50.4,163.9,50.4z"/>
		<path d="M168.3,50.4c-0.7,0-1.2-0.2-1.6-0.6c-0.4-0.4-0.6-0.9-0.6-1.6c0-0.8,0.4-1.4,1.1-1.9c0.7-0.4,1.9-0.8,3.5-0.9
			c0-1.1-0.5-1.7-1.4-1.7c-0.7,0-1.4,0.3-2.2,0.8l-0.6-1.1c1.1-0.7,2.1-1,3.1-1c0.9,0,1.6,0.3,2.1,0.9c0.4,0.6,0.7,1.3,0.7,2.4v4.7
			H171l-0.1-0.9l0,0C169.8,50,169.1,50.4,168.3,50.4z M168.8,49.1c0.6,0,1.2-0.3,1.8-0.9v-1.9c-1.1,0.1-1.9,0.3-2.4,0.6
			c-0.4,0.3-0.7,0.6-0.7,1.1c0,0.4,0.1,0.6,0.3,0.8C168.2,49,168.5,49.1,168.8,49.1z"/>
		<path d="M176,50.4c-1.1,0-1.6-0.7-1.6-2v-9.2h1.6v9.3c0,0.4,0.1,0.6,0.4,0.6c0.1,0,0.2,0,0.3,0l0.2,1.2
			C176.6,50.3,176.3,50.4,176,50.4z"/>
	</g>
</g>
</svg>
