<?xml version="1.0" encoding="utf-8"?>
<!-- Generator: Adobe Illustrator 24.2.1, SVG Export Plug-In . SVG Version: 6.00 Build 0)  -->
<svg version="1.1" id="圖層_1" xmlns="http://www.w3.org/2000/svg" xmlns:xlink="http://www.w3.org/1999/xlink" x="0px" y="0px"
	 viewBox="0 0 539 427" style="enable-background:new 0 0 539 427;" xml:space="preserve">
<style type="text/css">
	.st0{opacity:0.7;fill:#E5DAD1;}
	.st1{opacity:0.5;fill:#E5DAD1;}
</style>
<path class="st0" d="M213.2,398L106,418.2l5-22.7c-80-69.2-105.3-182.6-63.7-278.6l37,39.8c-23.4,77.8,4,165,73.3,214.1
	c0.9,0.6,1.8,1.2,2.7,2c0.9,0.6,1.8,1.2,2.8,1.8C179,385,195.9,392.8,213.2,398z"/>
<path class="st1" d="M491.5,308.8l-36.8-39.8c23.4-77.9-4.3-165.5-74.1-214.5c-0.7-0.5-1.3-0.9-2-1.4c-0.7-0.5-1.3-0.9-2.2-1.3
	c-15.6-10.5-32.5-18.3-49.7-23.7L435.2,7.6l-6.6,23.2C508.1,100.1,532.9,213.2,491.5,308.8z"/>
</svg>
