<svg width="26" height="26" viewBox="0 0 26 26" fill="none" xmlns="http://www.w3.org/2000/svg">
<path d="M12.9963 0C5.7847 0.0305254 -0.03797 5.86087 0.000186465 13.0343C0.0383429 20.2612 5.86865 26.0076 13.0039 26C20.2384 25.9924 26.0076 20.1468 26 12.9962C25.9924 5.76167 20.1544 0.00763135 12.9963 0ZM15.7283 20.0857C15.7206 20.1239 15.6596 20.1696 15.6214 20.1849C14.9346 20.4215 14.2554 20.7115 13.5534 20.8794C12.8589 21.0473 12.1492 21.0091 11.4624 20.7344C10.6077 20.391 10.1345 19.6583 10.1651 18.735C10.1956 17.8879 10.4322 17.0866 10.6535 16.2777C10.9282 15.2856 11.18 14.2935 11.4242 13.3014C11.4776 13.0954 11.47 12.8588 11.4548 12.6451C11.4166 12.1186 11.1724 11.8973 10.6458 11.8515C10.2032 11.8133 9.7835 11.882 9.37141 12.027C9.30273 12.0499 9.22642 12.0728 9.10432 12.1109C9.18063 11.7904 9.24168 11.5157 9.31036 11.241C9.31799 11.2104 9.37904 11.1876 9.4172 11.1647C10.2337 10.8365 11.0579 10.4931 11.9432 10.4092C12.6987 10.3405 13.4313 10.4168 14.0723 10.9052C14.637 11.3402 14.8354 11.9354 14.8202 12.6222C14.8049 13.4541 14.5607 14.2401 14.347 15.0337C14.0494 16.125 13.6678 17.1934 13.5381 18.3305C13.5228 18.4679 13.5152 18.6052 13.5305 18.7426C13.5915 19.2081 13.7899 19.3989 14.2554 19.4905C14.7896 19.5973 15.2857 19.4599 15.7741 19.2844C15.8122 19.2691 15.8427 19.2615 15.9267 19.2386C15.8504 19.5591 15.797 19.8186 15.7283 20.0857ZM15.4993 8.21896C15.1101 8.54711 14.6752 8.72263 14.2096 8.70737C12.9581 8.715 12.0729 7.7916 12.1797 6.65453C12.2637 5.7693 13.0802 5.05195 14.0494 5.00616C15.1483 4.95274 16.0641 5.71588 16.1327 6.79953C16.1785 7.36425 15.942 7.85265 15.4993 8.21896Z" fill="white"/>
</svg>
