<svg width="19" height="21" viewBox="0 0 19 21" fill="none" xmlns="http://www.w3.org/2000/svg">
<path d="M10.7651 19.976C8.29395 18.7485 6.76777 16.5143 5.05847 14.4957C3.94607 13.1888 2.95993 11.7632 1.9868 10.3489C0.449292 8.12771 0.522366 5.43814 2.13483 3.26551C2.40518 2.89718 2.73503 2.57607 3.07597 2.27377C3.61471 1.79151 4.18308 1.34878 4.74399 0.904113C5.07528 0.639145 5.32969 0.641102 5.58357 0.9536C6.86988 2.51248 8.13933 4.07497 9.41431 5.64685C9.6682 5.95935 9.62697 6.21159 9.30315 6.47848C8.70248 6.98458 8.09628 7.48127 7.47707 7.96665C7.29829 8.10371 7.25805 8.22874 7.3274 8.45376C8.05446 10.7286 9.45181 12.4436 11.5344 13.6026C11.743 13.7202 11.8705 13.6894 12.0418 13.5504C12.6123 13.0684 13.1939 12.6052 13.77 12.1326C14.203 11.7823 14.4367 11.8028 14.7758 12.217C15.999 13.7118 17.2148 15.2047 18.4305 16.6975C18.7752 17.1211 18.7528 17.3623 18.3292 17.707C17.6326 18.2759 16.9804 18.92 16.2284 19.395C15.1982 20.0531 14.0321 20.3734 12.7921 20.332C12.5621 20.3284 12.332 20.3248 12.1039 20.3137C11.6613 20.2074 11.2132 20.0917 10.7651 19.976ZM2.8134 4.06205C2.70738 4.22586 2.63172 4.33379 2.57846 4.44749C1.63675 6.24365 1.6999 8.00451 2.79057 9.70406C3.21017 10.3621 3.67482 10.9998 4.132 11.6356C5.73143 13.833 7.4759 15.9005 9.41239 17.8105C10.8531 19.234 12.5824 19.6326 14.523 19.0583C14.6524 19.02 14.7632 18.961 14.9227 18.8986C13.7978 17.5168 12.7081 16.1839 11.6164 14.8585C11.5311 14.7569 11.3895 14.6884 11.2702 14.6258C8.75306 13.2987 7.09435 11.2693 6.28471 8.54302C6.22089 8.32739 6.10841 8.11513 5.97135 7.93635C5.29881 7.0856 4.60555 6.25339 3.92916 5.41758C3.57145 4.98268 3.21374 4.54779 2.8134 4.06205ZM3.49119 3.25723C4.59202 4.6089 5.66321 5.92106 6.73995 7.24261C7.29532 6.78855 7.80924 6.37158 8.33449 5.94161C7.23366 4.58994 6.16246 3.27778 5.07826 1.95431C4.53229 2.40283 4.02776 2.81425 3.49119 3.25723ZM14.1927 13.118C13.6487 13.559 13.1328 13.9835 12.5982 14.419C13.6879 15.7519 14.7591 17.064 15.8544 18.4063C16.4004 17.9578 16.9143 17.5408 17.4489 17.1053C16.3592 15.7724 15.2935 14.4696 14.1927 13.118Z" fill="white"/>
</svg>
