<?xml version="1.0" encoding="utf-8"?>
<!-- Generator: Adobe Illustrator 24.2.1, SVG Export Plug-In . SVG Version: 6.00 Build 0)  -->
<svg version="1.1" id="Layer_1" xmlns="http://www.w3.org/2000/svg" xmlns:xlink="http://www.w3.org/1999/xlink" x="0px" y="0px"
	 viewBox="0 0 32 32" style="enable-background:new 0 0 32 32;" xml:space="preserve">
<style type="text/css">
	.st0{fill:#FF6700;}
	.st1{fill:#FFFFFF;}
</style>
<path class="st0" d="M16,0.3C7.3,0.3,0.3,7.3,0.3,16s7,15.7,15.7,15.7s15.7-7,15.7-15.7S24.7,0.3,16,0.3z M16,1
	c-2,0-3.9,0.4-5.6,1.1C12.2,1.4,14,1,16,1L16,1z"/>
<path class="st1" d="M20.9,17.3l-4.2-4.2c-0.2-0.2-0.5-0.2-0.6-0.2l0,0c-0.1,0-0.4,0-0.6,0.2l-4.2,4.2C11,17.6,11,18,11.2,18.4
	l0.1,0.1c0.3,0.3,0.7,0.3,1.1,0.1l3.8-3.7l3.6,3.6c0.2,0.2,0.5,0.2,0.6,0.2c0.5,0,0.8-0.4,0.8-0.8C21.1,17.6,20.9,17.4,20.9,17.3z"
	/>
</svg>
