<svg width="20" height="20" viewBox="0 0 20 20" fill="none" xmlns="http://www.w3.org/2000/svg">
<path d="M10.5859 20C10.1953 20 9.80469 20 9.41406 20C9.09375 19.957 8.76953 19.9258 8.45312 19.8711C6.67188 19.5664 5.07812 18.832 3.69531 17.6719C1.80469 16.082 0.597656 14.0859 0.152344 11.6445C0.0859375 11.293 0.0507812 10.9375 0 10.5859C0 10.1953 0 9.80469 0 9.41406C0.015625 9.28125 0.0351562 9.14453 0.0507812 9.01172C0.257812 7.22266 0.886719 5.59375 1.97266 4.15625C3.58203 2.01562 5.6875 0.648438 8.33594 0.15625C8.69141 0.0898438 9.05469 0.0507812 9.41406 0C9.80469 0 10.1953 0 10.5859 0C10.9062 0.0429688 11.2305 0.0742188 11.5469 0.128906C13.3281 0.433594 14.9219 1.16797 16.3047 2.32812C18.1953 3.91797 19.4023 5.91406 19.8477 8.35547C19.9102 8.70703 19.9492 9.0625 20 9.41406C20 9.80469 20 10.1953 20 10.5859C19.957 10.9062 19.9258 11.2305 19.8711 11.5508C19.5664 13.332 18.832 14.9258 17.668 16.3086C16.0781 18.1992 14.082 19.4062 11.6406 19.8516C11.293 19.9141 10.9375 19.9492 10.5859 20ZM10.0078 0.78125C5.01953 0.773438 0.792969 4.99219 0.78125 9.98828C0.769531 14.9766 4.98438 19.2031 9.98438 19.2188C14.9766 19.2344 19.2188 15 19.2188 10C19.2188 5.01172 15 0.789062 10.0078 0.78125Z" fill="white"/>
<path d="M10.1133 1.67969C11.7539 1.68359 13.4102 2.22266 14.875 3.3125C16.457 4.49219 17.543 6.02344 18.043 7.9375C18.6211 10.1562 18.3164 12.2656 17.1211 14.2227C15.8633 16.2812 14.0547 17.6172 11.6914 18.1367C9.63282 18.5898 7.6797 18.2539 5.8672 17.1797C4.04298 16.1016 2.78126 14.5547 2.09767 12.5469C1.70704 11.3945 1.59767 10.2148 1.74611 9.00391C1.90236 7.73828 2.29298 6.55859 2.97267 5.48047C3.03126 5.39063 3.10548 5.29687 3.19142 5.24219C3.32814 5.15234 3.48048 5.17578 3.60939 5.28125C3.7422 5.39062 3.78517 5.53516 3.72657 5.70312C3.70314 5.77734 3.66017 5.84375 3.62111 5.91016C2.79689 7.24219 2.41407 8.69922 2.46876 10.2578C2.51954 11.7539 3.00782 13.1172 3.88673 14.3359C4.68361 15.4414 5.69532 16.2891 6.93751 16.8555C8.26564 17.4609 9.65236 17.6836 11.1016 17.4453C13.2656 17.0898 14.9649 15.9844 16.207 14.1992C17.2422 12.7109 17.6953 11.0391 17.4922 9.23047C17.2813 7.35547 16.4531 5.77344 15.0703 4.48828C14.0195 3.51563 12.793 2.87109 11.3867 2.60547C9.45704 2.23828 7.65236 2.59375 5.96486 3.58984C5.90236 3.625 5.84376 3.66797 5.78126 3.69922C5.57032 3.80469 5.35939 3.75 5.25001 3.57422C5.13673 3.39062 5.18361 3.15625 5.39064 3.03125C5.73439 2.82422 6.08595 2.62109 6.44923 2.45312C7.55079 1.94922 8.71486 1.70312 10.1133 1.67969Z" fill="white"/>
<path d="M11.1094 10.3907C10.9492 10.7697 10.6836 11.0353 10.2813 11.1329C9.71485 11.2736 9.1211 10.9689 8.91407 10.4337C8.69922 9.87512 8.91797 9.25793 9.44532 8.98059C9.57032 8.91418 9.61719 8.84778 9.61719 8.70325C9.60938 7.87903 9.61328 7.0509 9.61328 6.22668C9.61328 6.14465 9.61719 6.05481 9.64453 5.97668C9.69922 5.8009 9.83594 5.71106 10.0156 5.71497C10.1836 5.71887 10.3125 5.80872 10.3672 5.97668C10.3906 6.05481 10.3945 6.14465 10.3945 6.22668C10.3984 7.05872 10.3984 7.89075 10.3945 8.72278C10.3945 8.84778 10.4375 8.90247 10.5391 8.98059C10.7227 9.11731 10.8906 9.28137 11.0273 9.46497C11.1055 9.57434 11.168 9.61731 11.3008 9.61731C11.8867 9.6095 12.4727 9.6134 13.0586 9.6134C13.3398 9.6134 13.5234 9.77356 13.5195 10.0079C13.5156 10.2384 13.3359 10.3907 13.0508 10.3947C13.0117 10.3947 12.9727 10.3947 12.9336 10.3947C12.3984 10.3947 11.8672 10.3947 11.332 10.3947C11.2539 10.3907 11.1836 10.3907 11.1094 10.3907ZM10.0078 9.6134C9.80469 9.6095 9.61719 9.78918 9.61328 9.99622C9.60938 10.1993 9.78907 10.3868 9.9961 10.3907C10.1992 10.3947 10.3867 10.215 10.3906 10.0079C10.3906 9.80481 10.2109 9.61731 10.0078 9.6134Z" fill="white"/>
<path d="M6.53906 6.1758C6.48047 6.25392 6.42188 6.37502 6.32422 6.45705C6.20313 6.5547 6.04297 6.5547 5.92969 6.44923C5.69531 6.2383 5.46875 6.01564 5.26172 5.77736C5.14063 5.64064 5.17578 5.46877 5.29297 5.33205C5.41016 5.19533 5.59375 5.12111 5.72656 5.23439C6 5.46486 6.24219 5.73439 6.49219 5.99611C6.51563 6.02345 6.51172 6.07814 6.53906 6.1758Z" fill="white"/>
<path d="M13.8984 6.51948C13.5937 6.52729 13.3594 6.19917 13.5273 5.98042C13.7383 5.70308 14.0078 5.45698 14.2773 5.23433C14.4062 5.12886 14.582 5.19526 14.6992 5.32026C14.8086 5.43745 14.8711 5.60933 14.7695 5.73042C14.5391 5.99995 14.2773 6.23823 14.0234 6.48823C13.9883 6.51167 13.9258 6.51167 13.8984 6.51948Z" fill="white"/>
<path d="M5.6133 14.8048C5.29689 14.8126 5.07033 14.4767 5.24611 14.2501C5.45314 13.9806 5.71096 13.7462 5.96877 13.5275C6.09767 13.4181 6.26955 13.4728 6.39455 13.59C6.51955 13.7071 6.58596 13.8829 6.48049 14.0118C6.25002 14.2853 5.98049 14.5275 5.71877 14.7775C5.69142 14.8009 5.63674 14.8009 5.6133 14.8048Z" fill="white"/>
<path d="M14.8047 14.3868C14.8125 14.6915 14.4883 14.9259 14.2695 14.7618C13.9883 14.5509 13.7461 14.2814 13.5195 14.0118C13.4101 13.8829 13.4805 13.7071 13.6015 13.59C13.7187 13.4767 13.8867 13.4142 14.0078 13.5196C14.2812 13.754 14.5234 14.0236 14.7734 14.2814C14.8008 14.3087 14.8008 14.3673 14.8047 14.3868Z" fill="white"/>
<path d="M10.3906 4.15241C10.3906 4.27741 10.3984 4.3985 10.3906 4.5235C10.375 4.75397 10.2148 4.91413 10.0078 4.91804C9.79688 4.92194 9.62109 4.75397 9.61328 4.51569C9.60547 4.26179 9.60547 4.00788 9.61328 3.75397C9.62109 3.5235 9.78906 3.36335 9.99219 3.35944C10.2031 3.35554 10.375 3.5235 10.3867 3.76179C10.3945 3.8946 10.3906 4.0235 10.3906 4.15241Z" fill="white"/>
<path d="M4.14454 10.3906C4.01954 10.3906 3.89844 10.3945 3.77344 10.3906C3.53126 10.3789 3.36329 10.2188 3.36329 10.0078C3.35938 9.79688 3.52735 9.625 3.76563 9.61719C4.01172 9.60938 4.26172 9.60938 4.50782 9.61719C4.75001 9.625 4.91797 9.78906 4.91797 10C4.92188 10.2188 4.7461 10.3828 4.4961 10.3945C4.37891 10.3945 4.26172 10.3906 4.14454 10.3906Z" fill="white"/>
<path d="M15.8594 9.60943C15.9883 9.60943 16.1211 9.60162 16.25 9.60943C16.4766 9.62505 16.6367 9.79302 16.6367 9.99615C16.6367 10.2032 16.4766 10.3711 16.2461 10.3829C15.9844 10.3946 15.7266 10.3946 15.4648 10.3829C15.2383 10.3711 15.0781 10.2032 15.0781 9.99615C15.0781 9.78912 15.2383 9.62505 15.4688 9.60943C15.6016 9.60552 15.7305 9.60943 15.8594 9.60943Z" fill="white"/>
<path d="M10.3906 15.8789C10.3906 16.0039 10.3984 16.125 10.3906 16.25C10.375 16.4766 10.2109 16.6367 10.0039 16.6367C9.79688 16.6367 9.625 16.4766 9.61719 16.25C9.60547 15.9883 9.60547 15.7305 9.61719 15.4687C9.625 15.2422 9.79688 15.082 10.0039 15.082C10.2109 15.082 10.375 15.2422 10.3906 15.4687C10.3984 15.6055 10.3906 15.7422 10.3906 15.8789Z" fill="white"/>
<path d="M4.41016 4.02741C4.61328 4.0235 4.80078 4.20319 4.80078 4.41022C4.80469 4.61334 4.625 4.80084 4.41797 4.80084C4.21485 4.80475 4.02735 4.62506 4.02735 4.41803C4.02344 4.21491 4.20313 4.03131 4.41016 4.02741Z" fill="white"/>
</svg>
